<svg width="24" height="24" viewBox="0 0 24 24" fill="none" xmlns="http://www.w3.org/2000/svg">
<path d="M16.5503 4.70104V3.90642C16.5503 2.60231 15.4992 1.5 14.2555 1.5H9.7329C8.48926 1.5 7.50594 2.60231 7.50594 3.90642V4.70104H3.13065C2.50863 4.70104 2 5.2344 2 5.88667C2 6.53851 2.50863 7.07187 3.13065 7.07187H4.44175L5.65145 21.4292C5.70815 22.0455 6.19443 22.4843 6.7821 22.4843H17.2175C17.8052 22.4843 18.2914 22.0338 18.3481 21.4292L19.5578 7.07187H20.8693C21.491 7.07187 22 6.53851 22 5.88667C22 5.2344 21.491 4.70104 20.8693 4.70104H16.5503ZM9.76683 3.87127H14.2895V4.70104H9.76683V3.87127ZM16.1775 20.113H7.81095L6.71423 7.07187H17.2854L16.1775 20.113Z" fill="white"/>
</svg>
