<svg width="24" height="24" viewBox="0 0 24 24" fill="none" xmlns="http://www.w3.org/2000/svg">
<path d="M23.9935 10.969C23.9905 10.9235 23.982 10.88 23.967 10.837C23.9615 10.821 23.9575 10.8055 23.9505 10.79C23.9265 10.738 23.896 10.689 23.854 10.6475C23.8535 10.647 23.8535 10.647 23.8535 10.647L21 7.793V5C21 4.989 20.9945 4.9795 20.9935 4.9685C20.9905 4.9245 20.982 4.882 20.968 4.84C20.9625 4.824 20.9585 4.8085 20.951 4.793C20.9265 4.74 20.896 4.6895 20.853 4.6465L16.353 0.1465C16.31 0.1035 16.2595 0.0725 16.206 0.0485C16.191 0.0415 16.176 0.0375 16.1605 0.0325C16.118 0.0175 16.0745 0.009 16.029 0.0065C16.0195 0.005 16.0105 0 16 0H3.5C3.224 0 3 0.224 3 0.5V7.793L0.1465 10.6465C0.1465 10.6465 0.146 10.647 0.1455 10.6475C0.1035 10.6895 0.0735 10.7385 0.0495 10.79C0.0425 10.8055 0.0385 10.821 0.033 10.837C0.018 10.88 0.009 10.9235 0.0065 10.969C0.0055 10.98 0 10.989 0 11V20.5C0 20.776 0.224 21 0.5 21H3V23.5C3 23.776 3.224 24 3.5 24H20.5C20.776 24 21 23.776 21 23.5V21H23.5C23.776 21 24 20.776 24 20.5V11C24 10.989 23.9945 10.98 23.9935 10.969ZM22.293 10.5H21V9.207L22.293 10.5ZM19.293 4.5H16.5V1.707L19.293 4.5ZM4 1H15.5V5C15.5 5.276 15.724 5.5 16 5.5H20V8V10.5H4V8V1ZM3 9.207V10.5H1.707L3 9.207ZM20 23H4V21H20V23ZM23 20H1V11.5H3.5H20.5H23V20Z" fill="#35BA59"/>
<path d="M11.7109 13.9425C11.7844 13.8745 11.8669 13.825 11.9574 13.7935C12.0479 13.7625 12.1414 13.747 12.2379 13.747C12.5724 13.747 12.8499 13.88 13.0709 14.1465L13.6319 13.4155C13.4674 13.223 13.2649 13.077 13.0244 12.9775C12.7834 12.8785 12.5104 12.829 12.2044 12.829C11.9949 12.829 11.7879 12.8645 11.5839 12.935C11.3799 13.006 11.1969 13.115 11.0354 13.2625C10.8739 13.41 10.7434 13.5955 10.6444 13.819C10.5454 14.043 10.4954 14.311 10.4954 14.6225C10.4954 14.872 10.5279 15.0855 10.5929 15.264C10.6579 15.443 10.7459 15.5985 10.8564 15.7315C10.9669 15.865 11.0944 15.9795 11.2389 16.076C11.3834 16.1725 11.5379 16.26 11.7024 16.3395C11.9629 16.47 12.1784 16.6115 12.3484 16.7645C12.5184 16.9175 12.6034 17.1245 12.6034 17.385C12.6034 17.6515 12.5324 17.858 12.3909 18.0055C12.2494 18.153 12.0709 18.2265 11.8554 18.2265C11.6629 18.2265 11.4744 18.181 11.2899 18.0905C11.1054 18 10.9484 17.875 10.8179 17.7165L10.2654 18.4645C10.4354 18.663 10.6619 18.827 10.9454 18.9575C11.2289 19.088 11.5374 19.153 11.8719 19.153C12.1044 19.153 12.3254 19.1135 12.5349 19.034C12.7444 18.9545 12.9274 18.837 13.0834 18.681C13.2394 18.5255 13.3639 18.334 13.4574 18.1075C13.5509 17.881 13.5979 17.62 13.5979 17.3255C13.5979 17.0705 13.5584 16.8495 13.4789 16.6625C13.3994 16.4755 13.2974 16.314 13.1729 16.178C13.0484 16.042 12.9094 15.926 12.7564 15.8295C12.6034 15.733 12.4534 15.648 12.3059 15.5745C12.0564 15.45 11.8554 15.318 11.7024 15.179C11.5494 15.0405 11.4729 14.8435 11.4729 14.5885C11.4729 14.441 11.4939 14.3135 11.5369 14.206C11.5794 14.0985 11.6374 14.0105 11.7109 13.9425Z" fill="#35BA59"/>
<path d="M7.58852 14.427C7.69052 14.2285 7.81802 14.0715 7.97102 13.955C8.12402 13.839 8.30252 13.781 8.50652 13.781C8.87502 13.781 9.17502 13.948 9.40752 14.2825L9.99402 13.5685C9.82952 13.3305 9.61702 13.148 9.35652 13.02C9.09602 12.8925 8.79252 12.829 8.44702 12.829C8.11252 12.829 7.80802 12.907 7.53302 13.0625C7.25802 13.2185 7.02452 13.4365 6.83152 13.717C6.63902 13.998 6.49002 14.332 6.38552 14.72C6.28052 15.1085 6.22852 15.532 6.22852 15.991C6.22852 16.45 6.28102 16.872 6.38552 17.2575C6.49002 17.643 6.63752 17.9755 6.82752 18.256C7.01752 18.537 7.24952 18.7565 7.52452 18.915C7.79952 19.0735 8.10702 19.153 8.44702 19.153C8.82102 19.153 9.13102 19.0795 9.37752 18.932C9.62402 18.7845 9.82652 18.592 9.98502 18.354L9.39852 17.6655C9.30202 17.813 9.18152 17.9375 9.03752 18.0395C8.89352 18.1415 8.72152 18.1925 8.52352 18.1925C8.31402 18.1925 8.13102 18.1345 7.97502 18.018C7.81902 17.902 7.69052 17.745 7.58802 17.5465C7.48552 17.348 7.40952 17.1145 7.35852 16.845C7.30752 16.576 7.28202 16.2915 7.28202 15.991C7.28202 15.685 7.30752 15.3975 7.35852 15.128C7.41002 14.859 7.48652 14.6255 7.58852 14.427Z" fill="#35BA59"/>
<path d="M16.0034 17.81H15.9779L14.9749 12.982H13.8359L15.3064 19H16.5984L18.0944 12.982H17.0064L16.0034 17.81Z" fill="#35BA59"/>
</svg>
