<svg width="24" height="24" viewBox="0 0 24 24" fill="none" xmlns="http://www.w3.org/2000/svg">
<path d="M15.2433 0.677757C15.1391 0.566681 14.9963 0.5 14.8483 0.5H5.98538C4.34995 0.5 3 1.86117 3 3.51661V20.4832C3 22.1388 4.34995 23.5 5.98538 23.5H18.0146C19.6501 23.5 21 22.1388 21 20.4832V7.01104C21 6.86662 20.9341 6.72782 20.8409 6.62218L15.2433 0.677757ZM15.4024 2.46112L19.1507 6.44443H16.7141C15.9897 6.44443 15.4024 5.85553 15.4024 5.12222V2.46112ZM18.0146 22.3889H5.98538C4.95923 22.3889 4.09757 21.5278 4.09757 20.4832V3.51661C4.09757 2.47779 4.95368 1.61111 5.98538 1.61111H14.3049V5.12222C14.3049 6.47215 15.3806 7.55554 16.7141 7.55554H19.9024V20.4832C19.9024 21.5278 19.0463 22.3889 18.0146 22.3889Z" fill="#A5A6AD"/>
<path d="M16.5175 15.5557H7.48459C7.18281 15.5557 6.9358 15.8055 6.9358 16.1112C6.9358 16.4167 7.18281 16.6668 7.48459 16.6668H16.5231C16.8249 16.6668 17.0719 16.4167 17.0719 16.1112C17.0719 15.8055 16.8249 15.5557 16.5175 15.5557Z" fill="#A5A6AD"/>
<path d="M16.5175 9.55566H7.48459C7.18281 9.55566 6.9358 9.80554 6.9358 10.1112C6.9358 10.4167 7.18281 10.6668 7.48459 10.6668H16.5231C16.8249 10.6668 17.0719 10.4167 17.0719 10.1112C17.0719 9.80554 16.8249 9.55566 16.5175 9.55566Z" fill="#A5A6AD"/>
<path d="M16.5175 12.5557H7.48459C7.18281 12.5557 6.9358 12.8055 6.9358 13.1112C6.9358 13.4167 7.18281 13.6668 7.48459 13.6668H16.5231C16.8249 13.6668 17.0719 13.4167 17.0719 13.1112C17.0719 12.8055 16.8249 12.5557 16.5175 12.5557Z" fill="#A5A6AD"/>
</svg>
