<svg width="24" height="24" viewBox="0 0 24 24" fill="none" xmlns="http://www.w3.org/2000/svg">
<rect width="24" height="24" fill="white"/>
<path d="M20.0856 6.20062C20.1262 5.87039 20.1473 5.53416 20.1473 5.19295C20.1473 2.325 17.8275 0 14.9659 0H6.30658C5.76188 0 5.29684 0.394219 5.20647 0.932531L2.01574 19.9392C1.90125 20.6212 2.42583 21.2427 3.11585 21.2427H6.28277C6.82747 21.2427 7.30126 20.8488 7.39158 20.3104C7.39158 20.3104 7.39686 20.2789 7.4064 20.2221H7.40645L6.96512 22.8511C6.86428 23.4522 7.32661 24 7.93478 24H10.7054C11.1855 24 11.5954 23.6525 11.675 23.178L12.4621 18.4896C12.5978 17.6814 13.2959 17.0896 14.1136 17.0896H14.8415C18.795 17.0896 22 13.8775 22 9.91519C22 8.38195 21.2438 7.02666 20.0856 6.20062Z" fill="#002987"/>
<path d="M20.0918 7C19.5979 10.8582 16.1737 13.8458 12.0226 13.8458H9.61395C9.07032 13.8458 8.60081 14.1935 8.45354 14.6851L7.01382 22.9026C6.91327 23.4767 7.3741 24 7.9803 24H10.7419C11.2205 24 11.629 23.6681 11.7084 23.215L12.493 18.7371C12.6282 17.9652 13.3241 17.3999 14.1392 17.3999H14.8646C18.8054 17.3999 22 14.3321 22 10.5477C22 9.08336 21.2463 7.78893 20.0918 7Z" fill="#0085CC"/>
<path d="M9.19652 13.2091H11.68C15.9602 13.2091 19.4908 10.394 20 6.75843C19.2363 6.28147 18.303 6 17.2942 6H10.8122C10.0742 6 9.44403 6.46772 9.32155 7.10642L8 14C8.15185 13.5367 8.636 13.2091 9.19652 13.2091Z" fill="#00186A"/>
</svg>
