<svg width="8" height="8" viewBox="0 0 8 8" fill="none" xmlns="http://www.w3.org/2000/svg">
<path fill-rule="evenodd" clip-rule="evenodd" d="M4.73826 5.44538C4.24786 5.79461 3.64791 6 3 6C1.34315 6 0 4.65685 0 3C0 1.34315 1.34315 0 3 0C4.65685 0 6 1.34315 6 3C6 3.64792 5.7946 4.24786 5.44537 4.73827L7.85356 7.14658C8.04882 7.34184 8.04881 7.65843 7.85354 7.85368C7.65828 8.04894 7.3417 8.04893 7.14644 7.85367L4.73826 5.44538ZM5 3C5 4.10457 4.10457 5 3 5C1.89543 5 1 4.10457 1 3C1 1.89543 1.89543 1 3 1C4.10457 1 5 1.89543 5 3Z" fill="white"/>
</svg>
