<svg width="16" height="16" viewBox="0 0 16 16" fill="none" xmlns="http://www.w3.org/2000/svg">
<path d="M7.99993 14H13.9999C14.3679 14 14.6666 13.7014 14.6666 13.3334C14.6666 12.9654 14.3679 12.6667 13.9999 12.6667H7.99993C7.63193 12.6667 7.33326 12.9654 7.33326 13.3334C7.33326 13.7014 7.63193 14 7.99993 14ZM10.5286 1.86202L2.19526 10.1954C2.11393 10.276 2.0506 10.382 2.01993 10.5054L1.35326 13.172C1.32726 13.272 1.32526 13.384 1.35326 13.4954C1.4426 13.8527 1.8046 14.07 2.16193 13.9807L4.8286 13.314C4.93993 13.2867 5.0486 13.228 5.1386 13.1387L13.4719 4.80535C13.8779 4.39935 14.0813 3.86535 14.0813 3.33402C14.0813 2.80269 13.8779 2.26869 13.4719 1.86269C13.0659 1.45669 12.5313 1.25269 11.9999 1.25269C11.4686 1.25269 10.9346 1.45602 10.5286 1.86202ZM11.4713 2.80469C11.6173 2.65869 11.8073 2.58602 11.9999 2.58602C12.1926 2.58602 12.3826 2.65869 12.5286 2.80469C12.6746 2.95069 12.7473 3.14069 12.7473 3.33335C12.7473 3.52602 12.6746 3.71602 12.5286 3.86202L4.32593 12.0647L2.91593 12.4174L3.2686 11.0074L11.4713 2.80469Z" fill="black"/>
</svg>
