<svg width="20" height="20" viewBox="0 0 20 20" fill="none" xmlns="http://www.w3.org/2000/svg">
<path d="M10 6.68421C11.8314 6.68421 13.3158 8.1686 13.3158 10C13.3158 11.8314 11.8314 13.3158 10 13.3158C8.1686 13.3158 6.68421 11.8314 6.68421 10C6.68421 8.1686 8.1686 6.68421 10 6.68421ZM10 7.63158C8.69182 7.63158 7.63158 8.69182 7.63158 10C7.63158 11.3082 8.69182 12.3684 10 12.3684C11.3082 12.3684 12.3684 11.3082 12.3684 10C12.3684 8.69182 11.3082 7.63158 10 7.63158ZM16.412 13.0629L17.7036 14.3545C17.8886 14.5395 17.8886 14.8394 17.7036 15.0244L15.0244 17.7036C14.8394 17.8886 14.5395 17.8886 14.3545 17.7036L13.0628 16.4118C12.8381 16.5187 12.6063 16.6141 12.3684 16.6975V18.5263C12.3684 18.7879 12.1563 19 11.8947 19H8.10526C7.84365 19 7.63158 18.7879 7.63158 18.5263V16.6975C7.39371 16.6141 7.16193 16.5187 6.93724 16.4118L5.64547 17.7036C5.46049 17.8886 5.16057 17.8886 4.97558 17.7036L2.29642 15.0244C2.11144 14.8394 2.11144 14.5395 2.29642 14.3545L3.588 13.0629C3.48174 12.8395 3.3867 12.6079 3.30274 12.3684H1.47368C1.21208 12.3684 1 12.1563 1 11.8947V8.10526C1 7.84365 1.21208 7.63158 1.47368 7.63158H3.30274C3.3867 7.39213 3.48174 7.16045 3.588 6.93705L2.29642 5.64547C2.11144 5.46049 2.11144 5.16057 2.29642 4.97558L4.97558 2.29642C5.16057 2.11144 5.46049 2.11144 5.64547 2.29642L6.93723 3.58818C7.16169 3.48134 7.39344 3.38589 7.63158 3.30206V1.47368C7.63158 1.21208 7.84365 1 8.10526 1H11.8947C12.1563 1 12.3684 1.21208 12.3684 1.47368V3.30206C12.6066 3.38589 12.8383 3.48134 13.0628 3.58818L14.3545 2.29642C14.5395 2.11144 14.8394 2.11144 15.0244 2.29642L17.7036 4.97558C17.8886 5.16057 17.8886 5.46049 17.7036 5.64547L16.412 6.93705C16.5183 7.16045 16.6133 7.39213 16.6973 7.63158H18.5263C18.7879 7.63158 19 7.84365 19 8.10526V11.8947C19 12.1563 18.7879 12.3684 18.5263 12.3684H16.6973C16.6133 12.6079 16.5183 12.8395 16.412 13.0629Z" fill="#35BA59"/>
<circle cx="10" cy="10" r="3.5" stroke="white"/>
</svg>
