<svg width="20" height="20" viewBox="0 0 20 20" fill="none" xmlns="http://www.w3.org/2000/svg">
<path d="M5.56667 2.44L4.3 1.18C2.12857 2.8 0.680952 5.32 0.5 8.2H2.30952C2.49048 5.77 3.66667 3.7 5.56667 2.44ZM17.6905 8.2H19.5C19.319 5.32 17.9619 2.8 15.7905 1.18L14.5238 2.44C16.3333 3.7 17.5095 5.77 17.6905 8.2ZM15.881 8.65C15.881 5.86 13.981 3.61 11.3571 2.98V2.35C11.3571 1.63 10.7238 1 10 1C9.27619 1 8.64286 1.63 8.64286 2.35V2.98C6.01905 3.61 4.11905 5.86 4.11905 8.65V13.6L2.30952 15.4V16.3H17.6905V15.4L15.881 13.6V8.65ZM10 19C10.0905 19 10.2714 19 10.3619 19C10.9952 18.91 11.4476 18.46 11.6286 17.92C11.719 17.74 11.8095 17.47 11.8095 17.2H8.19048C8.19048 18.19 9.00476 19 10 19Z" fill="#35BA59"/>
</svg>
