<svg width="16" height="16" viewBox="0 0 16 16" fill="none" xmlns="http://www.w3.org/2000/svg">
<path fill-rule="evenodd" clip-rule="evenodd" d="M14 8C14 11.3137 11.3137 14 8 14C4.68629 14 2 11.3137 2 8C2 4.68629 4.68629 2 8 2C11.3137 2 14 4.68629 14 8ZM13 8C13 10.7614 10.7614 13 8 13C6.79914 13 5.69715 12.5767 4.83514 11.8711C4.84139 11.8654 4.84753 11.8596 4.85355 11.8536L11.8536 4.85355C11.8596 4.84753 11.8654 4.84139 11.8711 4.83514C12.5767 5.69715 13 6.79914 13 8ZM4.12893 11.1649C4.13458 11.1586 4.14042 11.1525 4.14645 11.1464L11.1464 4.14645C11.1525 4.14042 11.1586 4.13458 11.1649 4.12893C10.3029 3.42334 9.20086 3 8 3C5.23858 3 3 5.23858 3 8C3 9.20086 3.42334 10.3029 4.12893 11.1649Z" fill="white"/>
</svg>
