<svg width="24" height="24" viewBox="0 0 24 24" fill="none" xmlns="http://www.w3.org/2000/svg">
<path d="M15.3944 0.677757C15.2889 0.566681 15.1443 0.5 14.9945 0.5H6.02222C4.36661 0.5 3 1.86117 3 3.51661V20.4832C3 22.1388 4.36661 23.5 6.02222 23.5H18.1999C19.8555 23.5 21.2221 22.1388 21.2221 20.4832V7.01104C21.2221 6.86662 21.1555 6.72782 21.061 6.62218L15.3944 0.677757ZM15.5555 2.46112L19.35 6.44443H16.8833C16.15 6.44443 15.5555 5.85553 15.5555 5.12222V2.46112ZM18.1999 22.3889H6.02222C4.98341 22.3889 4.11111 21.5278 4.11111 20.4832V3.51661C4.11111 2.47779 4.97779 1.61111 6.02222 1.61111H14.4444V5.12222C14.4444 6.47215 15.5334 7.55554 16.8833 7.55554H20.111V20.4832C20.111 21.5278 19.2443 22.3889 18.1999 22.3889Z" fill="#35BA59"/>
<path d="M16.6834 18.5557H7.53896C7.23345 18.5557 6.9834 18.8056 6.9834 19.1112C6.9834 19.4167 7.23345 19.6668 7.53896 19.6668H16.689C16.9945 19.6668 17.2445 19.4167 17.2445 19.1112C17.2445 18.8056 16.9945 18.5557 16.6834 18.5557Z" fill="#35BA59"/>
<path d="M11.7059 16.5611C11.8115 16.6722 11.956 16.7388 12.1114 16.7388C12.2671 16.7388 12.4115 16.6722 12.517 16.5611L15.7726 13.0667C15.9837 12.8443 15.967 12.4888 15.7448 12.2833C15.5225 12.0722 15.167 12.0887 14.9615 12.3111L12.667 14.7721V8.70555C12.667 8.39987 12.4169 8.14999 12.1114 8.14999C11.8059 8.14999 11.5559 8.39987 11.5559 8.70555V14.7721L9.26697 12.3111C9.05587 12.0889 8.7058 12.0722 8.48364 12.2833C8.26149 12.4944 8.24482 12.8445 8.45592 13.0667L11.7059 16.5611Z" fill="#35BA59"/>
</svg>
