<svg width="8" height="8" viewBox="0 0 8 8" fill="none" xmlns="http://www.w3.org/2000/svg">
<path fill-rule="evenodd" clip-rule="evenodd" d="M8 4C8 6.20914 6.20914 8 4 8C1.79086 8 0 6.20914 0 4C0 1.79086 1.79086 0 4 0C6.20914 0 8 1.79086 8 4ZM7 4C7 5.65685 5.65685 7 4 7C3.3456 7 2.74014 6.79047 2.24705 6.43485C2.28517 6.41316 2.32104 6.38607 2.35355 6.35355L6.35355 2.35355C6.38607 2.32104 6.41316 2.28517 6.43485 2.24705C6.79047 2.74014 7 3.3456 7 4ZM1.56515 5.75295C1.58684 5.71483 1.61393 5.67896 1.64645 5.64645L5.64645 1.64645C5.67896 1.61393 5.71483 1.58684 5.75295 1.56515C5.25986 1.20953 4.6544 1 4 1C2.34315 1 1 2.34315 1 4C1 4.6544 1.20953 5.25986 1.56515 5.75295Z" fill="#4A4A4B"/>
</svg>
