<svg width="41" height="41" viewBox="0 0 41 41" fill="none" xmlns="http://www.w3.org/2000/svg">
<g clip-path="url(#clip0)">
<path d="M21.4318 0C20.4025 0 19.5681 0.834414 19.5681 1.86366V9.31821C19.5681 10.3475 20.4025 11.1819 21.4318 11.1819C22.461 11.1819 23.2954 10.3475 23.2954 9.31821V1.86366C23.2954 0.834414 22.461 0 21.4318 0Z" fill="#35BA59"/>
<path d="M21.4318 29.8182C20.4025 29.8182 19.5681 30.6526 19.5681 31.6819V39.1364C19.5681 40.1657 20.4025 41.0001 21.4318 41.0001C22.461 41.0001 23.2954 40.1657 23.2954 39.1364V31.6819C23.2954 30.6526 22.461 29.8182 21.4318 29.8182Z" fill="#35BA59" fill-opacity="0.5"/>
<path d="M14.8433 11.2756L9.57203 6.00425C8.84444 5.27642 7.66441 5.27642 6.9365 6.00425C6.20867 6.73208 6.20867 7.91203 6.9365 8.63978L12.2077 13.9112C12.5716 14.275 13.0486 14.4571 13.5254 14.4571C14.0023 14.4571 14.4794 14.275 14.8431 13.9112C15.5711 13.1833 15.5711 12.0035 14.8433 11.2756Z" fill="#35BA59" fill-opacity="0.75"/>
<path d="M38.2044 18.6364H34.4772C33.4479 18.6364 32.6135 19.4708 32.6135 20.5C32.6135 21.5293 33.4479 22.3637 34.4772 22.3637H38.2044C39.2337 22.3637 40.0681 21.5293 40.0681 20.5C40.0681 19.4708 39.2337 18.6364 38.2044 18.6364Z" fill="#35BA59" fill-opacity="0.25"/>
<path d="M30.6562 27.089C29.9285 26.3612 28.7485 26.3614 28.0207 27.089C27.2928 27.8169 27.293 28.9967 28.0207 29.7246L33.292 34.9957C33.6559 35.3596 34.1329 35.5415 34.6099 35.5415C35.0868 35.5415 35.5639 35.3595 35.9276 34.9957C36.6554 34.2679 36.6554 33.0879 35.9276 32.3602L30.6562 27.089Z" fill="#35BA59" fill-opacity="0.25"/>
<path d="M12.114 20.5C12.114 19.4708 11.2796 18.6364 10.2503 18.6364H2.79579C1.76654 18.6364 0.932129 19.4708 0.932129 20.5C0.932129 21.5293 1.76654 22.3637 2.79579 22.3637H10.2503C11.2796 22.3637 12.114 21.5293 12.114 20.5Z" fill="#35BA59" fill-opacity="0.75"/>
<path d="M14.8434 27.0891C14.1157 26.3613 12.9356 26.3613 12.2079 27.0891L6.93674 32.3602C6.20891 33.0879 6.20891 34.268 6.93674 34.9958C7.30062 35.3596 7.77764 35.5416 8.25459 35.5416C8.73153 35.5416 9.20856 35.3597 9.57227 34.9958L14.8434 29.7246C15.5712 28.9969 15.5712 27.8169 14.8434 27.0891Z" fill="#35BA59" fill-opacity="0.5"/>
</g>
<defs>
<clipPath id="clip0">
<rect width="41" height="41" fill="white"/>
</clipPath>
</defs>
</svg>
