<svg width="41" height="54" viewBox="0 0 41 54" fill="none" xmlns="http://www.w3.org/2000/svg">
<path d="M38.8811 13.3879L24.7041 1.69214C23.5154 0.711591 21.5204 0 19.9604 0H3.61584C1.6221 0 0 1.60108 0 3.56943C0.000301282 4.04076 0.025157 50.7101 0.025157 50.9548C0.025157 52.7375 1.26915 53.9826 3.05033 53.9826C4.18014 53.9826 37.5309 54 37.5309 54C39.4763 54 41 52.414 41 50.3893V18.0726C41 16.3707 40.1088 14.4004 38.8811 13.3879ZM29.8147 34.6514C29.6355 34.9971 29.2645 35.1869 28.8225 35.1869H23.9776V46.7743C23.9776 47.5238 23.392 48.1744 22.6444 48.1744H18.4834C17.7357 48.1744 17.1987 47.5238 17.1987 46.7743V35.1869H12.3063C11.8645 35.1869 11.4936 34.9974 11.3142 34.6519C11.1349 34.3063 11.1791 33.8918 11.4325 33.5291L19.602 21.8437C19.8357 21.5095 20.1865 21.3198 20.5646 21.3198C20.943 21.3198 21.2939 21.5127 21.5274 21.8469L29.6962 33.5279C29.9499 33.8907 29.9942 34.3059 29.8147 34.6514ZM24.638 17.0649C22.2392 17.0649 22.1699 14.8373 22.1699 14.5832V4.67548L37.8322 17.0649H24.638Z" fill="#35BA59"/>
</svg>
