<svg width="24" height="24" viewBox="0 0 24 24" fill="none" xmlns="http://www.w3.org/2000/svg">
<path d="M7.56667 4.44L6.3 3.18C4.12857 4.8 2.68095 7.32 2.5 10.2H4.30952C4.49048 7.77 5.66667 5.7 7.56667 4.44ZM19.6905 10.2H21.5C21.319 7.32 19.9619 4.8 17.7905 3.18L16.5238 4.44C18.3333 5.7 19.5095 7.77 19.6905 10.2ZM17.881 10.65C17.881 7.86 15.981 5.61 13.3571 4.98V4.35C13.3571 3.63 12.7238 3 12 3C11.2762 3 10.6429 3.63 10.6429 4.35V4.98C8.01905 5.61 6.11905 7.86 6.11905 10.65V15.6L4.30952 17.4V18.3H19.6905V17.4L17.881 15.6V10.65ZM12 21C12.0905 21 12.2714 21 12.3619 21C12.9952 20.91 13.4476 20.46 13.6286 19.92C13.719 19.74 13.8095 19.47 13.8095 19.2H10.1905C10.1905 20.19 11.0048 21 12 21Z" fill="#35BA59"/>
</svg>
