<svg width="16" height="16" viewBox="0 0 16 16" fill="none" xmlns="http://www.w3.org/2000/svg">
<path fill-rule="evenodd" clip-rule="evenodd" d="M6 3C6 2.44772 6.44772 2 7 2H9C9.55228 2 10 2.44772 10 3H13.375C13.7202 3 14 3.27982 14 3.625C14 3.97018 13.7202 4.25 13.375 4.25H12.8864L12.0827 13.0905C12.0359 13.6056 11.604 14 11.0868 14H4.91321C4.39601 14 3.96415 13.6056 3.91732 13.0905L3.11364 4.25H2.625C2.27982 4.25 2 3.97018 2 3.625C2 3.27982 2.27982 3 2.625 3H6ZM4.36879 4.25L5.14152 12.75H10.8585L11.6312 4.25H4.36879Z" fill="#C7C7C7"/>
</svg>
