<svg width="16" height="16" viewBox="0 0 16 16" fill="none" xmlns="http://www.w3.org/2000/svg">
<path d="M2.54736 10.5504L2.54882 10.5489L10.8822 2.21557C11.1905 1.90722 11.5956 1.75269 11.9999 1.75269C12.404 1.75269 12.8099 1.90772 13.1184 2.21624C13.4267 2.52459 13.5813 2.92971 13.5813 3.33402C13.5813 3.73833 13.4267 4.14345 13.1184 4.4518L4.78636 12.7838C4.78621 12.784 4.78606 12.7841 4.78591 12.7843C4.76117 12.8087 4.73352 12.8225 4.70938 12.8284L4.70733 12.8289L2.04066 13.4956C1.95138 13.5179 1.86073 13.4637 1.83834 13.3741L1.83816 13.3734C1.83073 13.3438 1.83218 13.317 1.8372 13.2978L1.83834 13.2933L2.505 10.6266L2.50516 10.626C2.51303 10.5943 2.52891 10.5687 2.54736 10.5504ZM4.44725 12.5497L4.58158 12.5161L4.67948 12.4182L12.8822 4.21557C13.1257 3.97198 13.2473 3.65312 13.2473 3.33335C13.2473 3.01358 13.1257 2.69472 12.8822 2.45113C12.6386 2.20754 12.3197 2.08602 11.9999 2.08602C11.6802 2.08602 11.3613 2.20754 11.1177 2.45113L2.91504 10.6538L2.81714 10.7517L2.78354 10.886L2.43087 12.296L2.22862 13.1047L3.03725 12.9024L4.44725 12.5497ZM13.9999 13.5H7.99993C7.90807 13.5 7.83326 13.4252 7.83326 13.3334C7.83326 13.2415 7.90807 13.1667 7.99993 13.1667H13.9999C14.0918 13.1667 14.1666 13.2415 14.1666 13.3334C14.1666 13.4252 14.0918 13.5 13.9999 13.5Z" fill="#A5A6AD" fill-opacity="0.8" stroke="#C7C7C7"/>
</svg>
