<svg width="87" height="32" viewBox="0 0 87 32" fill="none" xmlns="http://www.w3.org/2000/svg">
<mask id="mask0" mask-type="alpha" maskUnits="userSpaceOnUse" x="0" y="0" width="32" height="32">
<circle cx="16" cy="16" r="14.5857" fill="#54CE75" stroke="#F3F4F7" stroke-width="2.82853"/>
</mask>
<g mask="url(#mask0)">
<path d="M26.2997 23.6973C23.9548 26.8299 20.2143 28.8572 16.0002 28.8572C8.89942 28.8572 3.14306 23.1009 3.14306 16.0001C3.14306 8.89923 8.89942 3.14288 16.0002 3.14288C20.497 3.14288 24.4546 5.45137 26.7525 8.94789L29.3808 7.22399C26.5211 2.87281 21.5962 6.10352e-05 16.0002 6.10352e-05C7.16369 6.10352e-05 0.000244141 7.16351 0.000244141 16.0001C0.000244141 24.8366 7.16369 32.0001 16.0002 32.0001C21.2444 32.0001 25.8993 29.4771 28.8174 25.5788L26.2997 23.6973Z" fill="#35BA59"/>
<path d="M10.2579 17.2685C10.2579 18.0627 10.4236 18.7928 10.7549 19.4589C11.1117 20.0994 11.5704 20.6502 12.1311 21.1113C12.6917 21.5725 13.3416 21.9311 14.0806 22.1873C14.8197 22.4435 15.5842 22.5716 16.3743 22.5716C17.4446 22.5716 18.3748 22.3282 19.1648 21.8415C19.9549 21.3291 20.6812 20.663 21.3438 19.8432L23.9432 21.8415C22.0319 24.3265 19.356 25.569 15.9155 25.569C14.4884 25.569 13.1887 25.3256 12.0164 24.8389C10.8696 24.3521 9.8884 23.686 9.07289 22.8406C8.28287 21.9696 7.67123 20.9576 7.23799 19.8048C6.80475 18.6263 6.58813 17.3582 6.58813 16.0004C6.58813 14.6426 6.8175 13.3873 7.27622 12.2344C7.76043 11.0559 8.41029 10.044 9.2258 9.19858C10.0668 8.32754 11.0607 7.64864 12.2075 7.16188C13.3543 6.67512 14.6031 6.43174 15.9538 6.43174C17.5593 6.43174 18.91 6.71355 20.0058 7.27716C21.1272 7.84078 22.0446 8.58372 22.7582 9.506C23.4718 10.4027 23.9814 11.4274 24.2873 12.5803C24.6186 13.7075 24.7842 14.8603 24.7842 16.0388V17.2685H10.2579ZM21.1144 14.5017C21.0889 13.7331 20.9615 13.0286 20.7321 12.3881C20.5283 11.7476 20.2097 11.1968 19.7765 10.7357C19.3432 10.2489 18.7953 9.87748 18.1327 9.62129C17.4956 9.33948 16.7438 9.19858 15.8773 9.19858C15.0363 9.19858 14.259 9.3651 13.5455 9.69814C12.8574 10.0056 12.2712 10.4155 11.787 10.9278C11.3028 11.4402 10.9205 12.0166 10.6402 12.6571C10.3854 13.272 10.2579 13.8868 10.2579 14.5017H21.1144Z" fill="#35BA59"/>
</g>
<path d="M37.5236 14.0002C37.4503 14.0002 37.3843 13.9745 37.3256 13.9232C37.2743 13.8645 37.2486 13.7985 37.2486 13.7252V6.58619C37.2486 6.50552 37.2743 6.43952 37.3256 6.38819C37.3769 6.32952 37.4429 6.30019 37.5236 6.30019H42.7156C42.7963 6.30019 42.8623 6.32952 42.9136 6.38819C42.9723 6.43952 43.0016 6.50552 43.0016 6.58619V7.67519C43.0016 7.75585 42.9723 7.82185 42.9136 7.87319C42.8623 7.92452 42.7963 7.95019 42.7156 7.95019H39.2396V9.34719H42.4736C42.5543 9.34719 42.6203 9.37652 42.6716 9.43519C42.7303 9.48652 42.7596 9.55252 42.7596 9.63319V10.6342C42.7596 10.7149 42.7303 10.7845 42.6716 10.8432C42.6203 10.8945 42.5543 10.9202 42.4736 10.9202H39.2396V12.3502H42.8036C42.8843 12.3502 42.9503 12.3795 43.0016 12.4382C43.0603 12.4895 43.0896 12.5555 43.0896 12.6362V13.7252C43.0896 13.8059 43.0603 13.8719 43.0016 13.9232C42.9503 13.9745 42.8843 14.0002 42.8036 14.0002H37.5236Z" fill="#35BA59"/>
<path d="M43.8772 14.0002C43.8185 14.0002 43.7635 13.9782 43.7122 13.9342C43.6682 13.8829 43.6462 13.8279 43.6462 13.7692C43.6462 13.7252 43.6499 13.6922 43.6572 13.6702L46.2202 6.61919C46.2935 6.40652 46.4402 6.30019 46.6602 6.30019H48.3762C48.5962 6.30019 48.7429 6.40652 48.8162 6.61919L51.3792 13.6702C51.3865 13.6922 51.3902 13.7252 51.3902 13.7692C51.3902 13.8279 51.3645 13.8829 51.3132 13.9342C51.2692 13.9782 51.2179 14.0002 51.1592 14.0002H49.7292C49.5532 14.0002 49.4285 13.9195 49.3552 13.7582L48.9592 12.6912H46.0772L45.6812 13.7582C45.6079 13.9195 45.4832 14.0002 45.3072 14.0002H43.8772ZM46.5392 11.0412H48.4972L47.5182 8.23619L46.5392 11.0412Z" fill="#35BA59"/>
<path d="M55.02 14.1102C54.3087 14.1102 53.7037 14.0075 53.205 13.8022C52.7064 13.5969 52.3287 13.3255 52.072 12.9882C51.8154 12.6509 51.6797 12.2842 51.665 11.8882C51.665 11.8222 51.687 11.7672 51.731 11.7232C51.7824 11.6792 51.841 11.6572 51.907 11.6572H53.37C53.458 11.6572 53.5277 11.6719 53.579 11.7012C53.6377 11.7305 53.7 11.7819 53.766 11.8552C53.8614 12.0312 54.008 12.1779 54.206 12.2952C54.4114 12.4052 54.6827 12.4602 55.02 12.4602C55.416 12.4602 55.7204 12.4015 55.933 12.2842C56.1457 12.1595 56.252 11.9909 56.252 11.7782C56.252 11.6242 56.197 11.4995 56.087 11.4042C55.977 11.3015 55.801 11.2135 55.559 11.1402C55.317 11.0595 54.9687 10.9715 54.514 10.8762C53.6267 10.7002 52.963 10.4325 52.523 10.0732C52.083 9.71385 51.863 9.20052 51.863 8.53319C51.863 8.07852 51.9877 7.67519 52.237 7.32319C52.4937 6.96385 52.853 6.68519 53.315 6.48719C53.7844 6.28919 54.327 6.19019 54.943 6.19019C55.5884 6.19019 56.1457 6.30385 56.615 6.53119C57.0917 6.75119 57.4547 7.02985 57.704 7.36719C57.9607 7.69719 58.0964 8.02352 58.111 8.34619C58.111 8.41219 58.089 8.47085 58.045 8.52219C58.001 8.56619 57.946 8.58819 57.88 8.58819H56.34C56.1787 8.58819 56.054 8.52219 55.966 8.39019C55.922 8.23619 55.8084 8.10785 55.625 8.00519C55.4417 7.89519 55.2144 7.84019 54.943 7.84019C54.635 7.84019 54.3967 7.89519 54.228 8.00519C54.0594 8.11519 53.975 8.27652 53.975 8.48919C53.975 8.70185 54.085 8.87052 54.305 8.99519C54.525 9.11252 54.9357 9.23352 55.537 9.35819C56.2264 9.48285 56.7727 9.64052 57.176 9.83119C57.5867 10.0145 57.8874 10.2565 58.078 10.5572C58.276 10.8505 58.375 11.2245 58.375 11.6792C58.375 12.1779 58.232 12.6105 57.946 12.9772C57.66 13.3439 57.264 13.6262 56.758 13.8242C56.252 14.0149 55.6727 14.1102 55.02 14.1102Z" fill="#35BA59"/>
<path d="M61.3639 14.0002C61.2906 14.0002 61.2246 13.9745 61.1659 13.9232C61.1146 13.8645 61.0889 13.7985 61.0889 13.7252V11.3822L58.5479 6.65219C58.5259 6.61552 58.5149 6.57519 58.5149 6.53119C58.5149 6.47252 58.5369 6.42119 58.5809 6.37719C58.6323 6.32585 58.6873 6.30019 58.7459 6.30019H60.1979C60.3006 6.30019 60.3849 6.32585 60.4509 6.37719C60.5169 6.42852 60.5646 6.48352 60.5939 6.54219L62.1229 9.30319L63.6519 6.54219C63.6813 6.48352 63.7289 6.42852 63.7949 6.37719C63.8609 6.32585 63.9453 6.30019 64.0479 6.30019H65.4999C65.5586 6.30019 65.6099 6.32585 65.6539 6.37719C65.7053 6.42119 65.7309 6.47252 65.7309 6.53119C65.7309 6.57519 65.7199 6.61552 65.6979 6.65219L63.1569 11.3822V13.7252C63.1569 13.8059 63.1276 13.8719 63.0689 13.9232C63.0176 13.9745 62.9516 14.0002 62.8709 14.0002H61.3639Z" fill="#35BA59"/>
<path d="M40.4386 26.1102C39.3899 26.1102 38.5649 25.8572 37.9636 25.3512C37.3696 24.8452 37.0543 24.1045 37.0176 23.1292C37.0103 22.9312 37.0066 22.6085 37.0066 22.1612C37.0066 21.7065 37.0103 21.3765 37.0176 21.1712C37.0543 20.2179 37.3733 19.4845 37.9746 18.9712C38.5833 18.4505 39.4046 18.1902 40.4386 18.1902C41.0913 18.1902 41.6743 18.2965 42.1876 18.5092C42.7083 18.7219 43.1189 19.0299 43.4196 19.4332C43.7203 19.8365 43.8779 20.3132 43.8926 20.8632C43.8926 20.9292 43.8669 20.9842 43.8156 21.0282C43.7716 21.0722 43.7166 21.0942 43.6506 21.0942H42.0886C41.9859 21.0942 41.9089 21.0759 41.8576 21.0392C41.8136 20.9952 41.7733 20.9182 41.7366 20.8082C41.6339 20.4489 41.4763 20.1995 41.2636 20.0602C41.0583 19.9135 40.7833 19.8402 40.4386 19.8402C39.6099 19.8402 39.1809 20.3022 39.1516 21.2262C39.1443 21.4242 39.1406 21.7285 39.1406 22.1392C39.1406 22.5499 39.1443 22.8615 39.1516 23.0742C39.1809 23.9982 39.6099 24.4602 40.4386 24.4602C40.7759 24.4602 41.0509 24.3869 41.2636 24.2402C41.4836 24.0935 41.6413 23.8442 41.7366 23.4922C41.7659 23.3822 41.8063 23.3089 41.8576 23.2722C41.9089 23.2282 41.9859 23.2062 42.0886 23.2062H43.6506C43.7166 23.2062 43.7716 23.2282 43.8156 23.2722C43.8669 23.3162 43.8926 23.3712 43.8926 23.4372C43.8779 23.9872 43.7203 24.4639 43.4196 24.8672C43.1189 25.2705 42.7083 25.5785 42.1876 25.7912C41.6743 26.0039 41.0913 26.1102 40.4386 26.1102Z" fill="#35BA59"/>
<path d="M48.2052 26.1102C47.1639 26.1102 46.3425 25.8572 45.7412 25.3512C45.1399 24.8452 44.8209 24.1009 44.7842 23.1182C44.7769 22.9129 44.7732 22.5975 44.7732 22.1722C44.7732 21.7469 44.7769 21.4279 44.7842 21.2152C44.8135 20.2472 45.1325 19.5029 45.7412 18.9822C46.3572 18.4542 47.1785 18.1902 48.2052 18.1902C49.2245 18.1902 50.0385 18.4542 50.6472 18.9822C51.2632 19.5029 51.5859 20.2472 51.6152 21.2152C51.6299 21.6405 51.6372 21.9595 51.6372 22.1722C51.6372 22.3922 51.6299 22.7075 51.6152 23.1182C51.5785 24.1009 51.2595 24.8452 50.6582 25.3512C50.0642 25.8572 49.2465 26.1102 48.2052 26.1102ZM48.2052 24.4602C48.5865 24.4602 48.8909 24.3465 49.1182 24.1192C49.3455 23.8845 49.4665 23.5289 49.4812 23.0522C49.4959 22.6269 49.5032 22.3225 49.5032 22.1392C49.5032 21.9559 49.4959 21.6589 49.4812 21.2482C49.4665 20.7715 49.3455 20.4195 49.1182 20.1922C48.8909 19.9575 48.5865 19.8402 48.2052 19.8402C47.8165 19.8402 47.5085 19.9575 47.2812 20.1922C47.0539 20.4195 46.9329 20.7715 46.9182 21.2482C46.9109 21.4535 46.9072 21.7505 46.9072 22.1392C46.9072 22.5352 46.9109 22.8395 46.9182 23.0522C46.9329 23.5289 47.0539 23.8845 47.2812 24.1192C47.5085 24.3465 47.8165 24.4602 48.2052 24.4602Z" fill="#35BA59"/>
<path d="M53.1535 26.0002C53.0801 26.0002 53.0141 25.9745 52.9555 25.9232C52.9041 25.8645 52.8785 25.7985 52.8785 25.7252V18.5752C52.8785 18.4945 52.9041 18.4285 52.9555 18.3772C53.0141 18.3259 53.0801 18.3002 53.1535 18.3002H54.6935C54.7741 18.3002 54.8401 18.3259 54.8915 18.3772C54.9428 18.4285 54.9685 18.4945 54.9685 18.5752V24.2732H58.2685C58.3491 24.2732 58.4151 24.3025 58.4665 24.3612C58.5251 24.4125 58.5545 24.4785 58.5545 24.5592V25.7252C58.5545 25.8059 58.5251 25.8719 58.4665 25.9232C58.4151 25.9745 58.3491 26.0002 58.2685 26.0002H53.1535Z" fill="#35BA59"/>
<path d="M59.7492 26.0002C59.6758 26.0002 59.6098 25.9745 59.5512 25.9232C59.4998 25.8645 59.4742 25.7985 59.4742 25.7252V18.5752C59.4742 18.4945 59.4998 18.4285 59.5512 18.3772C59.6098 18.3259 59.6758 18.3002 59.7492 18.3002H61.2892C61.3698 18.3002 61.4358 18.3259 61.4872 18.3772C61.5385 18.4285 61.5642 18.4945 61.5642 18.5752V24.2732H64.8642C64.9448 24.2732 65.0108 24.3025 65.0622 24.3612C65.1208 24.4125 65.1502 24.4785 65.1502 24.5592V25.7252C65.1502 25.8059 65.1208 25.8719 65.0622 25.9232C65.0108 25.9745 64.9448 26.0002 64.8642 26.0002H59.7492Z" fill="#35BA59"/>
<path d="M66.3449 26.0002C66.2715 26.0002 66.2055 25.9745 66.1469 25.9232C66.0955 25.8645 66.0699 25.7985 66.0699 25.7252V18.5862C66.0699 18.5055 66.0955 18.4395 66.1469 18.3882C66.1982 18.3295 66.2642 18.3002 66.3449 18.3002H71.5369C71.6175 18.3002 71.6835 18.3295 71.7349 18.3882C71.7935 18.4395 71.8229 18.5055 71.8229 18.5862V19.6752C71.8229 19.7559 71.7935 19.8219 71.7349 19.8732C71.6835 19.9245 71.6175 19.9502 71.5369 19.9502H68.0609V21.3472H71.2949C71.3755 21.3472 71.4415 21.3765 71.4929 21.4352C71.5515 21.4865 71.5809 21.5525 71.5809 21.6332V22.6342C71.5809 22.7149 71.5515 22.7845 71.4929 22.8432C71.4415 22.8945 71.3755 22.9202 71.2949 22.9202H68.0609V24.3502H71.6249C71.7055 24.3502 71.7715 24.3795 71.8229 24.4382C71.8815 24.4895 71.9109 24.5555 71.9109 24.6362V25.7252C71.9109 25.8059 71.8815 25.8719 71.8229 25.9232C71.7715 25.9745 71.7055 26.0002 71.6249 26.0002H66.3449Z" fill="#35BA59"/>
<path d="M76.253 26.1102C75.2044 26.1102 74.3794 25.8572 73.778 25.3512C73.184 24.8452 72.8687 24.1045 72.832 23.1292C72.8247 22.9312 72.821 22.6085 72.821 22.1612C72.821 21.7065 72.8247 21.3765 72.832 21.1712C72.8687 20.2179 73.1877 19.4845 73.789 18.9712C74.3977 18.4505 75.219 18.1902 76.253 18.1902C76.9057 18.1902 77.4887 18.2965 78.002 18.5092C78.5227 18.7219 78.9334 19.0299 79.234 19.4332C79.5347 19.8365 79.6924 20.3132 79.707 20.8632C79.707 20.9292 79.6814 20.9842 79.63 21.0282C79.586 21.0722 79.531 21.0942 79.465 21.0942H77.903C77.8004 21.0942 77.7234 21.0759 77.672 21.0392C77.628 20.9952 77.5877 20.9182 77.551 20.8082C77.4484 20.4489 77.2907 20.1995 77.078 20.0602C76.8727 19.9135 76.5977 19.8402 76.253 19.8402C75.4244 19.8402 74.9954 20.3022 74.966 21.2262C74.9587 21.4242 74.955 21.7285 74.955 22.1392C74.955 22.5499 74.9587 22.8615 74.966 23.0742C74.9954 23.9982 75.4244 24.4602 76.253 24.4602C76.5904 24.4602 76.8654 24.3869 77.078 24.2402C77.298 24.0935 77.4557 23.8442 77.551 23.4922C77.5804 23.3822 77.6207 23.3089 77.672 23.2722C77.7234 23.2282 77.8004 23.2062 77.903 23.2062H79.465C79.531 23.2062 79.586 23.2282 79.63 23.2722C79.6814 23.3162 79.707 23.3712 79.707 23.4372C79.6924 23.9872 79.5347 24.4639 79.234 24.8672C78.9334 25.2705 78.5227 25.5785 78.002 25.7912C77.4887 26.0039 76.9057 26.1102 76.253 26.1102Z" fill="#35BA59"/>
<path d="M82.8096 26.0002C82.729 26.0002 82.6593 25.9745 82.6006 25.9232C82.5493 25.8719 82.5236 25.8059 82.5236 25.7252V20.0932H80.5876C80.507 20.0932 80.4373 20.0675 80.3786 20.0162C80.3273 19.9649 80.3016 19.8989 80.3016 19.8182V18.5862C80.3016 18.5055 80.3273 18.4395 80.3786 18.3882C80.4373 18.3295 80.507 18.3002 80.5876 18.3002H86.5606C86.6413 18.3002 86.7073 18.3295 86.7586 18.3882C86.8173 18.4395 86.8466 18.5055 86.8466 18.5862V19.8182C86.8466 19.8989 86.8173 19.9649 86.7586 20.0162C86.7073 20.0675 86.6413 20.0932 86.5606 20.0932H84.6246V25.7252C84.6246 25.8059 84.5953 25.8719 84.5366 25.9232C84.4853 25.9745 84.4193 26.0002 84.3386 26.0002H82.8096Z" fill="#35BA59"/>
</svg>
