<svg width="24" height="24" viewBox="0 0 24 24" fill="none" xmlns="http://www.w3.org/2000/svg">
<path d="M24 12C24 12.2699 23.9912 12.5373 23.9736 12.8023C23.9559 13.0697 23.9295 13.3351 23.8942 13.5972C23.8261 14.114 23.7242 14.6204 23.5915 15.1141C22.2206 20.232 17.5504 24 12 24C6.48342 24 1.83623 20.2776 0.433453 15.2072C0.282609 14.6625 0.169453 14.1027 0.0969844 13.5301C0.0391875 13.0785 0.00684375 12.6196 0.000984375 12.1538C0.00046875 12.1024 0 12.0514 0 12C0 11.1056 0.0979688 10.2343 0.283594 9.39576C1.47281 4.02023 6.26695 0 12 0C17.8722 0 22.7594 4.21814 23.7967 9.78956C23.9304 10.5061 24 11.2447 24 12Z" fill="#F0EFEB"/>
<path d="M13.0446 6.80675C13.0436 7.25192 13.0412 7.69709 13.0433 8.14226C13.0436 8.20433 13.0228 8.22589 12.9657 8.23794C12.4325 8.35034 11.8999 8.46467 11.3674 8.57989C11.3075 8.59287 11.2865 8.58045 11.2869 8.51431C11.2895 8.09347 11.2894 7.67253 11.2869 7.25173C11.2866 7.19295 11.3069 7.1742 11.3626 7.16267C11.8986 7.052 12.4339 6.938 12.9694 6.82489C12.9848 6.82165 13.0028 6.82442 13.012 6.8067C13.0229 6.80675 13.0338 6.80675 13.0446 6.80675Z" fill="#676FE7"/>
<path d="M18.9131 10.9936C18.7539 10.3975 18.4791 9.86608 17.9859 9.47917C17.334 8.96734 16.6165 8.85812 15.8455 9.18479C15.6521 9.26659 15.4841 9.39147 15.3121 9.54283C15.2847 9.41401 15.2558 9.30137 15.2377 9.18676C15.2274 9.12311 15.199 9.11036 15.1407 9.11036C14.6842 9.11279 14.2277 9.11279 13.7712 9.11036C13.7046 9.10989 13.6841 9.12751 13.6841 9.19656C13.6855 11.8366 13.6855 14.477 13.6836 17.1175C13.6836 17.1949 13.712 17.2013 13.7747 17.1881C14.2968 17.0759 14.8189 16.9628 15.342 16.8565C15.417 16.8413 15.4292 16.8109 15.4292 16.7443C15.4307 16.1522 15.4346 15.56 15.439 14.9679C15.439 14.9443 15.4272 14.9115 15.4483 14.8993C15.4758 14.8836 15.4968 14.9149 15.5174 14.9301C16.0326 15.3029 16.6028 15.3959 17.2116 15.2417C17.9262 15.0609 18.3974 14.5902 18.7016 13.9368C18.9009 13.5092 18.9954 13.0542 19.0312 12.5855C19.0723 12.0486 19.0527 11.5167 18.9131 10.9936ZM17.1704 13.0571C17.0832 13.2751 16.9559 13.4632 16.7698 13.6116C16.403 13.904 15.7603 13.7962 15.4728 13.4955C15.4424 13.4642 15.438 13.4313 15.438 13.3927C15.4385 13.1889 15.4376 12.9851 15.437 12.7819V12.1706H15.4277C15.4277 11.7661 15.4287 11.3615 15.4267 10.9569C15.4267 10.9065 15.4419 10.8712 15.4767 10.8355C15.7965 10.5014 16.5709 10.3466 16.9902 10.9476C17.1768 11.215 17.2737 11.5143 17.312 11.8332C17.362 12.2514 17.3277 12.6624 17.1704 13.0571Z" fill="#666EE7"/>
<path d="M21.2288 12.8007C22.1438 12.8007 23.0587 12.8003 23.9737 12.8022C23.9913 12.5373 24.0001 12.2698 24.0001 11.9999C24.0001 11.2447 23.9305 10.5061 23.7968 9.7895C23.6842 9.65773 23.5554 9.53773 23.4079 9.43146C22.8094 9.00045 22.1393 8.9201 21.436 9.07048C20.7635 9.2135 20.258 9.60532 19.8926 10.1809C19.5855 10.6653 19.4322 11.2011 19.3852 11.7697C19.3367 12.3565 19.374 12.9364 19.565 13.4977C19.8887 14.4494 20.544 15.0313 21.529 15.2375C22.0326 15.3433 22.5385 15.3261 23.0425 15.2458C23.2296 15.216 23.4133 15.1729 23.5915 15.1141C23.7243 14.6203 23.8261 14.1139 23.8942 13.5972C23.3392 13.8171 22.7594 13.8954 22.1594 13.8303C21.6137 13.7711 21.2361 13.4933 21.1357 12.9159C21.1162 12.8032 21.1167 12.8007 21.2288 12.8007ZM21.0995 11.4729C21.1177 11.1056 21.2131 10.7735 21.5389 10.5565C22.0389 10.2229 22.6679 10.4752 22.8388 11.0752C22.8741 11.1986 22.8922 11.324 22.8956 11.4528C22.8971 11.5077 22.8785 11.5214 22.8261 11.5209C22.5518 11.5184 22.2775 11.5199 22.0032 11.5199C21.726 11.5199 21.4488 11.5199 21.1716 11.5194C21.1392 11.5195 21.0966 11.5337 21.0995 11.4729Z" fill="#666EE7"/>
<path d="M2.88736 15.0063C2.53275 15.1846 2.15559 15.2723 1.7618 15.3026C1.30823 15.3374 0.865969 15.3022 0.433453 15.2071C0.282609 14.6625 0.169453 14.1026 0.0969844 13.5301C0.404109 13.6525 0.721453 13.7431 1.05211 13.7936C1.27547 13.8279 1.50127 13.8411 1.72509 13.799C1.89408 13.7666 2.04394 13.7006 2.09292 13.5115C2.12967 13.3714 2.0993 13.2479 1.99791 13.1436C1.88723 13.03 1.74858 12.96 1.60411 12.9032C1.30631 12.7866 1.00458 12.6793 0.708281 12.5593C0.453609 12.4565 0.211641 12.3306 0.00103125 12.1538C0.00046875 12.1023 0 12.0513 0 11.9999C0 11.1056 0.0979687 10.2342 0.283594 9.39569C0.456 9.2845 0.646547 9.20074 0.85125 9.13755C1.28864 9.00288 1.73681 8.98816 2.18939 9.01802C2.62336 9.0469 3.04214 9.13947 3.45061 9.28446C3.51966 9.30893 3.54464 9.33982 3.54417 9.41721C3.53977 9.89524 3.54173 10.3733 3.54173 10.8513V10.9488C3.33455 10.8454 3.13327 10.7592 2.92359 10.6941C2.54841 10.5766 2.16586 10.5051 1.77112 10.509C1.65994 10.51 1.54973 10.5232 1.44445 10.5658C1.18978 10.6686 1.14225 10.9674 1.3553 11.1432C1.50272 11.2642 1.67953 11.3274 1.85634 11.3906C2.20359 11.5145 2.5582 11.6184 2.88736 11.7888C3.24248 11.9725 3.54712 12.2115 3.72 12.5838C4.05455 13.3047 3.94533 14.4734 2.88736 15.0063Z" fill="#666EE7"/>
<path d="M4.23019 10.8748C4.23019 9.9567 4.23014 9.0387 4.23033 8.12061C4.23033 8.08808 4.23342 8.0555 4.23342 8.02302C4.23342 7.98655 4.25166 7.97178 4.28658 7.96442C4.81645 7.853 5.34623 7.7412 5.87555 7.62711C5.9497 7.61112 5.93428 7.65814 5.93405 7.69616C5.931 8.14151 5.92889 8.58697 5.92237 9.03228C5.92134 9.10184 5.93559 9.12453 6.01031 9.12369C6.39867 9.11952 6.78712 9.12303 7.17548 9.12036C7.23581 9.11994 7.25391 9.13484 7.25353 9.19681C7.25086 9.62052 7.25245 10.0443 7.25184 10.468C7.25166 10.6012 7.25048 10.6017 7.12125 10.6012C6.7492 10.5998 6.37716 10.5993 6.00511 10.5953C5.94441 10.5946 5.92177 10.6062 5.922 10.6741C5.92462 11.4645 5.92373 12.2548 5.92373 13.0453C5.92373 13.1267 5.93048 13.2073 5.94675 13.2872C6.03103 13.7001 6.36745 13.8288 6.76045 13.793C6.90366 13.78 7.04475 13.7516 7.18073 13.7033C7.22447 13.6878 7.24833 13.683 7.24823 13.7457C7.24762 14.1747 7.24964 14.6038 7.25316 15.0329C7.25353 15.0803 7.23178 15.0991 7.19362 15.1162C6.94833 15.2267 6.68686 15.2667 6.42314 15.3004C6.22875 15.3252 6.03131 15.3339 5.83983 15.312C5.23242 15.2427 4.59417 14.9201 4.32267 14.1357C4.25222 13.9322 4.22377 13.7226 4.22437 13.5069C4.22667 12.6296 4.22536 11.7523 4.22536 10.8749C4.22695 10.8748 4.22855 10.8748 4.23019 10.8748Z" fill="#666EE7"/>
<path d="M9.41603 9.62992C9.5057 9.48657 9.59753 9.36334 9.72395 9.2709C10.0601 9.025 10.4309 9.00864 10.819 9.10534C10.8551 9.11434 10.8642 9.13618 10.8642 9.17068C10.8635 9.66507 10.8631 10.1595 10.8644 10.6539C10.8646 10.7203 10.8301 10.7043 10.791 10.6954C10.4793 10.6246 10.1767 10.6453 9.88731 10.7888C9.84855 10.808 9.81142 10.8312 9.77561 10.8556C9.61811 10.9623 9.53237 11.0864 9.53462 11.3019C9.54784 12.5649 9.54044 13.8282 9.54278 15.0914C9.54292 15.1668 9.52895 15.1923 9.44683 15.1916C8.9253 15.1874 8.40372 15.1882 7.88214 15.191C7.81323 15.1914 7.79697 15.1711 7.79702 15.1042C7.7988 13.1374 7.79884 11.1707 7.79688 9.20392C7.79683 9.13398 7.81848 9.11978 7.88397 9.12015C8.33219 9.12296 8.78045 9.12296 9.22862 9.12001C9.28975 9.11964 9.31314 9.13829 9.32411 9.19675C9.35031 9.3369 9.38284 9.47575 9.41603 9.62992Z" fill="#666EE7"/>
<path d="M13.0411 12.1626C13.0411 13.1404 13.0403 14.1183 13.0427 15.0961C13.0429 15.1694 13.0257 15.1919 12.9493 15.1914C12.425 15.188 11.9008 15.1882 11.3766 15.1913C11.3052 15.1917 11.2858 15.1737 11.2859 15.1013C11.288 13.1375 11.288 11.1737 11.2859 9.2098C11.2858 9.13818 11.3031 9.11934 11.3754 9.11976C11.8997 9.12309 12.4239 9.12295 12.9481 9.1199C13.0211 9.11948 13.0431 9.1363 13.0429 9.21271C13.0402 10.196 13.0411 11.1793 13.0411 12.1626Z" fill="#676FE7"/>
</svg>
