<svg width="24" height="24" viewBox="0 0 24 24" fill="none" xmlns="http://www.w3.org/2000/svg">
<path d="M12 8.68421C13.8314 8.68421 15.3158 10.1686 15.3158 12C15.3158 13.8314 13.8314 15.3158 12 15.3158C10.1686 15.3158 8.68421 13.8314 8.68421 12C8.68421 10.1686 10.1686 8.68421 12 8.68421ZM12 9.63158C10.6918 9.63158 9.63158 10.6918 9.63158 12C9.63158 13.3082 10.6918 14.3684 12 14.3684C13.3082 14.3684 14.3684 13.3082 14.3684 12C14.3684 10.6918 13.3082 9.63158 12 9.63158ZM18.412 15.0629L19.7036 16.3545C19.8886 16.5395 19.8886 16.8394 19.7036 17.0244L17.0244 19.7036C16.8394 19.8886 16.5395 19.8886 16.3545 19.7036L15.0628 18.4118C14.8381 18.5187 14.6063 18.6141 14.3684 18.6975V20.5263C14.3684 20.7879 14.1563 21 13.8947 21H10.1053C9.84365 21 9.63158 20.7879 9.63158 20.5263V18.6975C9.39371 18.6141 9.16193 18.5187 8.93724 18.4118L7.64547 19.7036C7.46049 19.8886 7.16057 19.8886 6.97558 19.7036L4.29642 17.0244C4.11144 16.8394 4.11144 16.5395 4.29642 16.3545L5.588 15.0629C5.48174 14.8395 5.3867 14.6079 5.30274 14.3684H3.47368C3.21208 14.3684 3 14.1563 3 13.8947V10.1053C3 9.84365 3.21208 9.63158 3.47368 9.63158H5.30274C5.3867 9.39213 5.48174 9.16045 5.588 8.93705L4.29642 7.64547C4.11144 7.46049 4.11144 7.16057 4.29642 6.97558L6.97558 4.29642C7.16057 4.11144 7.46049 4.11144 7.64547 4.29642L8.93723 5.58818C9.16169 5.48134 9.39344 5.38589 9.63158 5.30206V3.47368C9.63158 3.21208 9.84365 3 10.1053 3H13.8947C14.1563 3 14.3684 3.21208 14.3684 3.47368V5.30206C14.6066 5.38589 14.8383 5.48134 15.0628 5.58818L16.3545 4.29642C16.5395 4.11144 16.8394 4.11144 17.0244 4.29642L19.7036 6.97558C19.8886 7.16057 19.8886 7.46049 19.7036 7.64547L18.412 8.93705C18.5183 9.16045 18.6133 9.39213 18.6973 9.63158H20.5263C20.7879 9.63158 21 9.84365 21 10.1053V13.8947C21 14.1563 20.7879 14.3684 20.5263 14.3684H18.6973C18.6133 14.6079 18.5183 14.8395 18.412 15.0629Z" fill="#35BA59"/>
<circle cx="12" cy="12" r="3.5" stroke="white"/>
</svg>
